
SVGOMG
Powered by SVGO v2.6.1

Open SVG
Paste markup
Demo
Contribute
About

12.25k → 6.06k 49.48%
<svg xmlns="http://www.w3.org/2000/svg" viewBox="0 0 1411 1414"><path style="fill:#fff;stroke:none" d="M0 0v1410h1c6.726-11.51 12.864-23.39 19.424-35 2.377-4.21 4.62-11.37 8.905-13.97C33.664 1358.4 42.088 1360 47 1360h42c46.762 0 98.015 2.85 143-12 16.434-5.43 36.634-13.72 47.39-28 20.655-27.44 35.787-61.28 53.034-91l112-193c103.309-178.003 207.635-355.453 309.997-534 40.633-70.874 81.996-141.342 123.003-212 17.158-29.564 45.835-64.384 46.522-100 .481-24.945-19.538-43.445-39.946-54.219-43.279-22.848-89.79-20.319-136-10.781-3.905-11.539 9.429-25.978 15.15-36a5161.404 5161.404 0 0 1 31.861-55c6.41-10.914 14.653-22.089 18.989-34H597c3.637 11.494 12.041 22.657 18.201 33 10.648 17.88 20.928 36 31.375 54C681.393 146.992 716.438 206.862 751 267c10.939 19.033 21.893 38.071 33.011 57 4.797 8.169 13.849 18.694 15.771 28 1.408 6.824-8.485 18.264-11.782 24-12.291 21.386-24.87 42.607-37.15 64-33.193 57.828-66.957 115.332-100.426 173l-36 62c-6.17 10.631-11.571 22.514-19.424 32l-33.576-59-65-112-202-348-77.705-134-21.438-37-10.494-15.972L170 0H0z"/><path style="fill:#aa6a01;stroke:none" d="m185 0 1 1-1-1z"/><path style="fill:#b78901;stroke:none" d="m186 0 14 26 29.139 50 104.437 180 172.997 298 58.006 100L596 707c17.83-26.945 32.718-56.109 49.012-84 34.414-58.911 69.014-117.75 102.838-177 12.784-22.395 25.629-44.807 38.753-67 3.747-6.335 14.319-18.508 13.754-26-.471-6.254-7.37-14.656-10.558-20-8.294-13.907-16.145-28.073-24.402-42-28.9-48.742-56.688-98.137-85.386-147-20.682-35.215-40.935-70.677-61.435-106-5.23-9.01-10.446-18.05-15.777-27-2.027-3.403-3.992-8.798-7.904-10.397C585.591-3.199 569.042 0 559 0H186z"/><path style="fill:#aa6a01;stroke:none" d="m596 0 1 1-1-1z"/><path style="fill:#030381;stroke:none" d="M748 125c16.829-2.266 32.904-6.74 50-7.911 29.564-2.024 63.489 5.997 89 20.923 18.618 10.893 36.294 27.963 36.871 50.988.873 34.796-29.839 71.385-46.447 100l-123 212-321 553-105 181c-15.91 27.41-30.244 56.98-48.328 83-11.159 16.06-33.927 25.73-52.096 31-44.477 12.91-93.13 11-139 11H46c-4.661 0-13.378-1.67-17.39 1.03-4.037 2.71-6.44 9.83-8.75 13.97-6.678 11.97-16.058 24.8-19.86 38h768l13.671-1.03 9.549-14.97 19.78-37c-33.673 0-67.408-.76-101-1-18.358-.13-36.619 2.02-55-.42-17.363-2.31-42.708-5.27-49.612-24.58-3.97-11.1 3.354-20.83 8.813-30 11.632-19.53 22.812-39.34 34.223-59l145.152-250 392.844-677c41.21-70.991 82.02-142.223 123.59-213 13.86-23.597 27.74-47.214 41.27-71 6.12-10.76 15.22-22.111 18.72-34H875c-18.457 0-39.727-2.973-57.896.148-7.561 1.3-14.41 19.645-17.954 25.852-13.559 23.753-27.31 47.416-41.161 71-4.765 8.113-14.503 18.569-9.989 28z"/><path style="fill:#fff;stroke:none" d="m811 1360-20.306 37-9.879 14.97L765 1413H0v1h1367v-1l-96-1 45.6-79 23.4-42h2l68 119h1V0c-10.52 0-30.11-3.844-39.61.603-6.38 2.986-11.37 17.454-14.81 23.397-12.19 21.001-24.29 42.062-36.59 63-49.97 85.074-98.3 171.123-148.59 256-145.78 246-284.287 496.323-430.601 742-36.074 60.57-71.156 121.84-106.22 183-7.28 12.7-14.657 25.34-22.003 38-5.561 9.58-11.419 18.67-6.811 30 7.503 18.45 33.265 20.71 50.235 22.71 18.096 2.14 35.96.08 54 .31 33.604.42 67.318.98 101 .98z"/><path style="fill:#010101;stroke:none" d="m812 3 1 1-1-1M599 5l1 1-1-1z"/><path style="fill:#aa6a01;stroke:none" d="m189 7 1 1-1-1m411 0 1 1-1-1m-408 5 1 1-1-1m411 0 1 1-1-1m-407 7 1 1-1-1m411 0 1 1-1-1m3 5 1 1-1-1z"/><path style="fill:#010101;stroke:none" d="m1356 24 1 1-1-1M200 26l1 1-1-1z"/><path style="fill:#aa6a01;stroke:none" d="m611 26 1 1-1-1m3 5 1 1-1-1z"/><path style="fill:#010101;stroke:none" d="m794 34 1 1-1-1m-177 2 1 1-1-1z"/><path style="fill:#aa6a01;stroke:none" d="m207 38 1 1-1-1m3 5 1 1-1-1m411 0 1 1-1-1m-407 7 1 1-1-1m411 0 1 1-1-1z"/><path style="fill:#010101;stroke:none" d="m783 53 1 1-1-1z"/><path style="fill:#aa6a01;stroke:none" d="m217 55 1 1-1-1z"/><path style="fill:#010101;stroke:none" d="m628 55 1 1-1-1m710 0 1 1-1-1M218 57l1 1-1-1z"/><path style="fill:#aa6a01;stroke:none" d="m221 62 1 1-1-1m411 0 1 1-1-1m-407 7 1 1-1-1m411 0 1 1-1-1m-408 5 1 1-1-1m411 0 1 1-1-1z"/><path style="fill:#010101;stroke:none" d="m229 76 1 1-1-1m536 8 1 1-1-1m-119 2 1 1-1-1m674 0 1 1-1-1z"/><path style="fill:#aa6a01;stroke:none" d="m236 88 1 1-1-1m411 0 1 1-1-1m-408 5 1 1-1-1m411 0 1 1-1-1m-407 7 1 1-1-1m411 0 1 1-1-1m-408 5 1 1-1-1m411 0 1 1-1-1z"/><path style="fill:#010101;stroke:none" d="m1309 105 1 1-1-1m-1062 2 1 1-1-1m500 8 1 1-1-1m-83 2 1 1-1-1m148 0 1 1-1-1z"/><path style="fill:#aa6a01;stroke:none" d="m254 119 1 1-1-1m411 0 1 1-1-1z"/><path style="fill:#010101;stroke:none" d="m832 119 1 1-1-1m6 1 1 1-1-1m5 1 1 1-1-1z"/><path style="fill:#aa6a01;stroke:none" d="m257 124 1 1-1-1m411 0 1 1-1-1m-407 7 1 1-1-1m414 5 1 1-1-1z"/><path style="fill:#010101;stroke:none" d="m1291 136 1 1-1-1m-1026 2 1 1-1-1z"/><path style="fill:#aa6a01;stroke:none" d="m268 143 1 1-1-1m411 0 1 1-1-1z"/><path style="fill:#010101;stroke:none" d="m897 144 1 1-1-1m-215 4 1 1-1-1z"/><path style="fill:#aa6a01;stroke:none" d="m272 150 1 1-1-1m414 5 1 1-1-1z"/><path style="fill:#010101;stroke:none" d="m276 157 1 1-1-1m636 1 1 1-1-1z"/><path style="fill:#aa6a01;stroke:none" d="m279 162 1 1-1-1m411 0 1 1-1-1m-408 5 1 1-1-1z"/><path style="fill:#010101;stroke:none" d="m693 167 1 1-1-1m580 0 1 1-1-1z"/><path style="fill:#aa6a01;stroke:none" d="m283 169 1 1-1-1m411 0 1 1-1-1m-408 5 1 1-1-1m411 0 1 1-1-1m-407 7 1 1-1-1m411 0 1 1-1-1m3 5 1 1-1-1z"/><path style="fill:#010101;stroke:none" d="m294 188 1 1-1-1z"/><path style="fill:#aa6a01;stroke:none" d="m297 193 1 1-1-1z"/><path style="fill:#010101;stroke:none" d="m711 198 1 1-1-1m544 0 1 1-1-1z"/><path style="fill:#aa6a01;stroke:none" d="m301 200 1 1-1-1m414 5 1 1-1-1m-407 7 1 1-1-1m411 0 1 1-1-1m-408 5 1 1-1-1m411 0 1 1-1-1z"/><path style="fill:#010101;stroke:none" d="m1244 217 1 1-1-1m-932 2 1 1-1-1m417 10 1 1-1-1z"/><path style="fill:#aa6a01;stroke:none" d="m319 231 1 1-1-1m411 0 1 1-1-1m-408 5 1 1-1-1m411 0 1 1-1-1m-407 7 1 1-1-1m414 5 1 1-1-1z"/><path style="fill:#010101;stroke:none" d="m1226 248 1 1-1-1m-896 2 1 1-1-1m569 1 1 1-1-1z"/><path style="fill:#aa6a01;stroke:none" d="m333 255 1 1-1-1m411 0 1 1-1-1z"/><path style="fill:#010101;stroke:none" d="m747 260 1 1-1-1z"/><path style="fill:#aa6a01;stroke:none" d="m337 262 1 1-1-1m414 5 1 1-1-1z"/><path style="fill:#010101;stroke:none" d="m341 269 1 1-1-1m547 1 1 1-1-1z"/><path style="fill:#aa6a01;stroke:none" d="m344 274 1 1-1-1m411 0 1 1-1-1z"/><path style="fill:#010101;stroke:none" d="m758 279 1 1-1-1m450 0 1 1-1-1z"/><path style="fill:#aa6a01;stroke:none" d="m348 281 1 1-1-1m411 0 1 1-1-1m3 5 1 1-1-1m-407 7 1 1-1-1m3 5 1 1-1-1m411 0 1 1-1-1z"/><path style="fill:#010101;stroke:none" d="m359 300 1 1-1-1m511 1 1 1-1-1z"/><path style="fill:#aa6a01;stroke:none" d="m773 305 1 1-1-1z"/><path style="fill:#010101;stroke:none" d="m776 310 1 1-1-1z"/><path style="fill:#aa6a01;stroke:none" d="m366 312 1 1-1-1m414 5 1 1-1-1m-407 7 1 1-1-1m411 0 1 1-1-1m-408 5 1 1-1-1m411 0 1 1-1-1z"/><path style="fill:#010101;stroke:none" d="m1179 329 1 1-1-1m-802 2 1 1-1-1m475 1 1 1-1-1m-58 9 1 1-1-1z"/><path style="fill:#aa6a01;stroke:none" d="m384 343 1 1-1-1m411 0 1 1-1-1m-408 5 1 1-1-1m411 0 1 1-1-1m-407 7 1 1-1-1z"/><path style="fill:#010101;stroke:none" d="m1161 360 1 1-1-1m-766 2 1 1-1-1z"/><path style="fill:#aa6a01;stroke:none" d="m795 363 1 1-1-1z"/><path style="fill:#010101;stroke:none" d="m834 363 1 1-1-1z"/><path style="fill:#aa6a01;stroke:none" d="m398 367 1 1-1-1m394 1 1 1-1-1m-390 6 1 1-1-1m386 1 1 1-1-1m-3 5 1 1-1-1z"/><path style="fill:#010101;stroke:none" d="m784 382 1 1-1-1z"/><path style="fill:#aa6a01;stroke:none" d="m409 386 1 1-1-1m3 5 1 1-1-1z"/><path style="fill:#010101;stroke:none" d="m1143 391 1 1-1-1m-730 2 1 1-1-1z"/><path style="fill:#aa6a01;stroke:none" d="m777 394 1 1-1-1m-361 4 1 1-1-1z"/><path style="fill:#010101;stroke:none" d="m773 401 1 1-1-1z"/><path style="fill:#aa6a01;stroke:none" d="m420 405 1 1-1-1m350 1 1 1-1-1z"/><path style="fill:#010101;stroke:none" d="m1132 410 1 1-1-1m-708 2 1 1-1-1z"/><path style="fill:#aa6a01;stroke:none" d="m766 413 1 1-1-1z"/><path style="fill:#010101;stroke:none" d="m805 413 1 1-1-1z"/><path style="fill:#aa6a01;stroke:none" d="m427 417 1 1-1-1m4 7 1 1-1-1m328 1 1 1-1-1m-3 5 1 1-1-1z"/><path style="fill:#010101;stroke:none" d="m755 432 1 1-1-1m39 0 1 1-1-1z"/><path style="fill:#aa6a01;stroke:none" d="m438 436 1 1-1-1m314 1 1 1-1-1m-311 4 1 1-1-1z"/><path style="fill:#010101;stroke:none" d="m1114 441 1 1-1-1m-672 2 1 1-1-1z"/><path style="fill:#aa6a01;stroke:none" d="m748 444 1 1-1-1z"/><path style="fill:#010101;stroke:none" d="m744 451 1 1-1-1z"/><path style="fill:#aa6a01;stroke:none" d="m449 455 1 1-1-1m292 1 1 1-1-1m-4 7 1 1-1-1z"/><path style="fill:#010101;stroke:none" d="m776 463 1 1-1-1z"/><path style="fill:#aa6a01;stroke:none" d="m456 467 1 1-1-1m3 5 1 1-1-1z"/><path style="fill:#010101;stroke:none" d="m1096 472 1 1-1-1m-636 2 1 1-1-1z"/><path style="fill:#aa6a01;stroke:none" d="m730 475 1 1-1-1m-3 5 1 1-1-1z"/><path style="fill:#010101;stroke:none" d="m726 482 1 1-1-1z"/><path style="fill:#aa6a01;stroke:none" d="m467 486 1 1-1-1m3 5 1 1-1-1m249 3 1 1-1-1z"/><path style="fill:#010101;stroke:none" d="m758 494 1 1-1-1z"/><path style="fill:#aa6a01;stroke:none" d="m474 498 1 1-1-1m242 1 1 1-1-1z"/><path style="fill:#010101;stroke:none" d="m1078 503 1 1-1-1m-600 2 1 1-1-1z"/><path style="fill:#aa6a01;stroke:none" d="m712 506 1 1-1-1m-231 4 1 1-1-1z"/><path style="fill:#010101;stroke:none" d="m708 513 1 1-1-1z"/><path style="fill:#aa6a01;stroke:none" d="m485 517 1 1-1-1z"/><path style="fill:#010101;stroke:none" d="m1067 522 1 1-1-1m-578 2 1 1-1-1z"/><path style="fill:#aa6a01;stroke:none" d="m701 525 1 1-1-1z"/><path style="fill:#010101;stroke:none" d="m740 525 1 1-1-1z"/><path style="fill:#aa6a01;stroke:none" d="m492 529 1 1-1-1m206 1 1 1-1-1m-202 6 1 1-1-1m198 1 1 1-1-1z"/><path style="fill:#010101;stroke:none" d="m690 544 1 1-1-1z"/><path style="fill:#aa6a01;stroke:none" d="m503 548 1 1-1-1m184 1 1 1-1-1m-181 4 1 1-1-1z"/><path style="fill:#010101;stroke:none" d="m1049 553 1 1-1-1m-542 2 1 1-1-1z"/><path style="fill:#aa6a01;stroke:none" d="m683 556 1 1-1-1z"/><path style="fill:#010101;stroke:none" d="m722 556 1 1-1-1m-43 7 1 1-1-1z"/><path style="fill:#aa6a01;stroke:none" d="m514 567 1 1-1-1m162 1 1 1-1-1m-3 5 1 1-1-1m-1 2 1 1-1-1z"/><path style="fill:#010101;stroke:none" d="m711 575 1 1-1-1z"/><path style="fill:#aa6a01;stroke:none" d="m521 579 1 1-1-1m148 1 1 1-1-1m-145 4 1 1-1-1z"/><path style="fill:#010101;stroke:none" d="m1031 584 1 1-1-1m-506 2 1 1-1-1z"/><path style="fill:#aa6a01;stroke:none" d="m665 587 1 1-1-1z"/><path style="fill:#010101;stroke:none" d="m661 594 1 1-1-1z"/><path style="fill:#aa6a01;stroke:none" d="m532 598 1 1-1-1m126 1 1 1-1-1m-123 4 1 1-1-1m119 3 1 1-1-1z"/><path style="fill:#010101;stroke:none" d="m693 606 1 1-1-1z"/><path style="fill:#aa6a01;stroke:none" d="m539 610 1 1-1-1z"/><path style="fill:#010101;stroke:none" d="m1013 615 1 1-1-1m-470 2 1 1-1-1z"/><path style="fill:#aa6a01;stroke:none" d="m647 618 1 1-1-1m-101 4 1 1-1-1m98 1 1 1-1-1z"/><path style="fill:#010101;stroke:none" d="m643 625 1 1-1-1z"/><path style="fill:#aa6a01;stroke:none" d="m550 629 1 1-1-1m3 5 1 1-1-1z"/><path style="fill:#010101;stroke:none" d="m1002 634 1 1-1-1z"/><path style="fill:#aa6a01;stroke:none" d="m636 637 1 1-1-1z"/><path style="fill:#010101;stroke:none" d="m675 637 1 1-1-1z"/><path style="fill:#aa6a01;stroke:none" d="m557 641 1 1-1-1m76 1 1 1-1-1m-73 4 1 1-1-1z"/><path style="fill:#010101;stroke:none" d="m561 648 1 1-1-1z"/><path style="fill:#aa6a01;stroke:none" d="m629 649 1 1-1-1m-65 4 1 1-1-1z"/><path style="fill:#010101;stroke:none" d="m625 656 1 1-1-1z"/><path style="fill:#aa6a01;stroke:none" d="m568 660 1 1-1-1z"/><path style="fill:#010101;stroke:none" d="m984 665 1 1-1-1m-412 2 1 1-1-1z"/><path style="fill:#aa6a01;stroke:none" d="m618 668 1 1-1-1z"/><path style="fill:#010101;stroke:none" d="m657 668 1 1-1-1z"/><path style="fill:#aa6a01;stroke:none" d="m575 672 1 1-1-1m40 1 1 1-1-1m-37 4 1 1-1-1m1 2 1 1-1-1m32 1 1 1-1-1m-29 4 1 1-1-1z"/><path style="fill:#010101;stroke:none" d="m607 687 1 1-1-1z"/><path style="fill:#aa6a01;stroke:none" d="m586 691 1 1-1-1z"/><path style="fill:#010101;stroke:none" d="m966 696 1 1-1-1m-376 2 1 1-1-1z"/><path style="fill:#aa6a01;stroke:none" d="m600 699 1 1-1-1z"/><path style="fill:#010101;stroke:none" d="m639 699 1 1-1-1z"/><path style="fill:#aa6a01;stroke:none" d="m593 703 1 1-1-1m4 1 1 1-1-1z"/><path style="fill:#b78901;stroke:none" d="M1001 705c-19.408 29.428-35.891 61.412-53.427 92-32.017 55.845-64.977 111.154-96.994 167-12.848 22.41-25.802 44.78-38.976 67-4.119 6.95-15.013 19.81-14.794 28 .178 6.7 8.184 16.32 11.591 22 10.07 16.79 20.402 33.72 29.6 51h2c12.902-27.64 30.965-53.55 46.15-80 33.371-58.136 66.916-116.204 100.861-174 13.859-23.6 27.739-47.213 41.269-71 4.2-7.38 14.8-19.416 15.05-28 .19-6.176-7.18-14.769-10.18-20-9.74-16.972-18.81-39.754-32.15-54z"/><path style="fill:#010101;stroke:none" d="m1006 713 1 1-1-1m-11 1 1 1-1-1z"/><path style="fill:#aa6a01;stroke:none" d="m994 716 1 1-1-1m16 4 1 1-1-1m-19 1 1 1-1-1z"/><path style="fill:#010101;stroke:none" d="m948 727 1 1-1-1z"/><path style="fill:#aa6a01;stroke:none" d="m1014 727 1 1-1-1z"/><path style="fill:#010101;stroke:none" d="m621 730 1 1-1-1z"/><path style="fill:#aa6a01;stroke:none" d="m1017 732 1 1-1-1m-33 1 1 1-1-1m-4 7 1 1-1-1z"/><path style="fill:#010101;stroke:none" d="m1024 744 1 1-1-1m-47 1 1 1-1-1m-40 1 1 1-1-1z"/><path style="fill:#aa6a01;stroke:none" d="m1025 746 1 1-1-1m3 5 1 1-1-1m-55 1 1 1-1-1m-4 7 1 1-1-1z"/><path style="fill:#010101;stroke:none" d="m603 761 1 1-1-1z"/><path style="fill:#aa6a01;stroke:none" d="m1035 763 1 1-1-1z"/><path style="fill:#010101;stroke:none" d="m966 764 1 1-1-1z"/><path style="fill:#aa6a01;stroke:none" d="m965 766 1 1-1-1m74 4 1 1-1-1m-77 1 1 1-1-1z"/><path style="fill:#010101;stroke:none" d="m1042 775 1 1-1-1m-123 2 1 1-1-1z"/><path style="fill:#aa6a01;stroke:none" d="m958 778 1 1-1-1m-3 5 1 1-1-1m85 2 1 1-1-1z"/><path style="fill:#010101;stroke:none" d="m585 792 1 1-1-1m451 0 1 1-1-1m-88 3 1 1-1-1z"/><path style="fill:#aa6a01;stroke:none" d="m947 797 1 1-1-1m86 0 1 1-1-1m-89 5 1 1-1-1m85 2 1 1-1-1z"/><path style="fill:#010101;stroke:none" d="m901 808 1 1-1-1m-327 3 1 1-1-1m451 0 1 1-1-1z"/><path style="fill:#aa6a01;stroke:none" d="m937 814 1 1-1-1m85 2 1 1-1-1m-89 5 1 1-1-1m86 0 1 1-1-1m-1 2 1 1-1-1z"/><path style="fill:#010101;stroke:none" d="m930 826 1 1-1-1m-40 1 1 1-1-1z"/><path style="fill:#aa6a01;stroke:none" d="m926 833 1 1-1-1m85 2 1 1-1-1m-89 5 1 1-1-1m86 0 1 1-1-1z"/><path style="fill:#010101;stroke:none" d="m556 842 1 1-1-1m451 0 1 1-1-1m-88 3 1 1-1-1z"/><path style="fill:#aa6a01;stroke:none" d="m918 847 1 1-1-1m-3 5 1 1-1-1z"/><path style="fill:#010101;stroke:none" d="m1086 852 1 1-1-1z"/><path style="fill:#b78901;stroke:none" d="M1086 853c-51.11 83.49-97.7 169.79-147.603 254-13.948 23.54-27.684 47.24-41.247 71-4.125 7.23-14.818 19.56-14.712 28 .089 7.05 7.855 16.12 11.361 22 9.869 16.54 18.597 33.92 29.201 50h2c13.854-29.67 33.136-57.67 49.576-86 32.094-55.3 63.374-111.14 96.224-166 14.06-23.48 27.35-47.405 41.21-71 4.49-7.647 16.01-21.037 16.18-30 .12-6.316-7.43-14.66-10.47-20-9.71-17.07-21.96-33.983-29.72-52h-2z"/><path style="fill:#aa6a01;stroke:none" d="m1000 854 1 1-1-1z"/><path style="fill:#010101;stroke:none" d="m1084 855 1 1-1-1m5 1 1 1-1-1z"/><path style="fill:#aa6a01;stroke:none" d="m1083 857 1 1-1-1z"/><path style="fill:#010101;stroke:none" d="m872 858 1 1-1-1z"/><path style="fill:#aa6a01;stroke:none" d="m1090 858 1 1-1-1m-179 1 1 1-1-1m86 0 1 1-1-1m83 3 1 1-1-1m13 1 1 1-1-1m-185 1 1 1-1-1m85 2 1 1-1-1z"/><path style="fill:#010101;stroke:none" d="m538 873 1 1-1-1m451 0 1 1-1-1z"/><path style="fill:#aa6a01;stroke:none" d="m1073 874 1 1-1-1m27 1 1 1-1-1z"/><path style="fill:#010101;stroke:none" d="m901 876 1 1-1-1z"/><path style="fill:#aa6a01;stroke:none" d="m986 878 1 1-1-1m83 3 1 1-1-1m35 1 1 1-1-1m-207 1 1 1-1-1m85 2 1 1-1-1z"/><path style="fill:#010101;stroke:none" d="m1066 886 1 1-1-1m41 1 1 1-1-1m-253 2 1 1-1-1z"/><path style="fill:#aa6a01;stroke:none" d="m1108 889 1 1-1-1z"/><path style="fill:#010101;stroke:none" d="m978 892 1 1-1-1z"/><path style="fill:#aa6a01;stroke:none" d="m1062 893 1 1-1-1m49 1 1 1-1-1m-221 1 1 1-1-1m85 2 1 1-1-1m83 3 1 1-1-1m57 1 1 1-1-1m-229 1 1 1-1-1m86 0 1 1-1-1m-1 2 1 1-1-1m84 1 1 1-1-1m63 1 1 1-1-1z"/><path style="fill:#010101;stroke:none" d="m883 907 1 1-1-1z"/><path style="fill:#aa6a01;stroke:none" d="m1054 907 1 1-1-1z"/><path style="fill:#010101;stroke:none" d="m843 908 1 1-1-1z"/><path style="fill:#aa6a01;stroke:none" d="m1119 908 1 1-1-1m-237 1 1 1-1-1m169 3 1 1-1-1m71 1 1 1-1-1m-243 1 1 1-1-1m85 2 1 1-1-1z"/><path style="fill:#010101;stroke:none" d="m1125 918 1 1-1-1z"/><path style="fill:#aa6a01;stroke:none" d="m875 921 1 1-1-1m86 0 1 1-1-1z"/><path style="fill:#010101;stroke:none" d="m509 923 1 1-1-1m451 0 1 1-1-1z"/><path style="fill:#aa6a01;stroke:none" d="m1044 924 1 1-1-1m-172 2 1 1-1-1m-1 2 1 1-1-1m255 1 1 1-1-1m-86 2 1 1-1-1m85 0 1 1-1-1m-257 2 1 1-1-1m85 2 1 1-1-1z"/><path style="fill:#010101;stroke:none" d="m1037 936 1 1-1-1z"/><path style="fill:#aa6a01;stroke:none" d="m1122 936 1 1-1-1z"/><path style="fill:#010101;stroke:none" d="m825 939 1 1-1-1z"/><path style="fill:#aa6a01;stroke:none" d="m950 940 1 1-1-1m83 3 1 1-1-1m85 0 1 1-1-1m-257 2 1 1-1-1m85 2 1 1-1-1m83 3 1 1-1-1z"/><path style="fill:#010101;stroke:none" d="m1114 950 1 1-1-1z"/><path style="fill:#aa6a01;stroke:none" d="m857 952 1 1-1-1z"/><path style="fill:#010101;stroke:none" d="m491 954 1 1-1-1m451 0 1 1-1-1z"/><path style="fill:#aa6a01;stroke:none" d="m1026 955 1 1-1-1m85 0 1 1-1-1z"/><path style="fill:#010101;stroke:none" d="m854 957 1 1-1-1z"/><path style="fill:#aa6a01;stroke:none" d="m939 959 1 1-1-1m168 3 1 1-1-1m-257 2 1 1-1-1m85 2 1 1-1-1z"/><path style="fill:#010101;stroke:none" d="m1019 967 1 1-1-1z"/><path style="fill:#aa6a01;stroke:none" d="m1018 969 1 1-1-1z"/><path style="fill:#010101;stroke:none" d="m807 970 1 1-1-1z"/><path style="fill:#aa6a01;stroke:none" d="m846 971 1 1-1-1m86 0 1 1-1-1m83 3 1 1-1-1m85 0 1 1-1-1m-257 2 1 1-1-1m85 2 1 1-1-1m169 1 1 1-1-1z"/><path style="fill:#010101;stroke:none" d="m1096 981 1 1-1-1z"/><path style="fill:#aa6a01;stroke:none" d="m925 983 1 1-1-1z"/><path style="fill:#010101;stroke:none" d="m473 985 1 1-1-1m451 0 1 1-1-1z"/><path style="fill:#aa6a01;stroke:none" d="m1008 986 1 1-1-1z"/><path style="fill:#010101;stroke:none" d="m836 988 1 1-1-1z"/><path style="fill:#aa6a01;stroke:none" d="m835 990 1 1-1-1m86 0 1 1-1-1m83 3 1 1-1-1m85 0 1 1-1-1m-257 2 1 1-1-1m85 2 1 1-1-1z"/><path style="fill:#010101;stroke:none" d="m1001 998 1 1-1-1z"/><path style="fill:#b78901;stroke:none" d="M1171 999c-31.29 47.29-58.04 98.75-86.15 148-19.49 34.14-39.21 68.19-59.25 102-14.14 23.87-27.545 48.19-41.8 72-4.64 7.75-16.642 21.94-16.883 31-.143 5.35 6.073 12.48 8.662 17 5.75 10.03 11.577 20.03 17.432 30 2.053 3.5 4.247 9.62 7.629 11.97 2.89 2.02 11.09 1.71 14.26.43 7.46-3.04 13.28-19.69 17.3-26.4 15.03-25.1 29.61-50.57 44.08-76 31.41-55.22 63.04-110.52 95.72-165 9.91-16.52 19.23-33.39 28.99-50 3.56-6.05 11.34-14.97 12.09-22 .66-6.24-7.05-14.86-10.07-20-9.58-16.31-18.09-40.15-32.01-53z"/><path style="fill:#010101;stroke:none" d="m1172 999 1 1-1-1m-383 2 1 1-1-1z"/><path style="fill:#aa6a01;stroke:none" d="m1169 1001 1 1-1-1m4 0 1 1-1-1m-345 1 1 1-1-1z"/><path style="fill:#010101;stroke:none" d="m462 1004 1 1-1-1m451 0 1 1-1-1z"/><path style="fill:#aa6a01;stroke:none" d="m997 1005 1 1-1-1m85 0 1 1-1-1m94 1 1 1-1-1m-351 1 1 1-1-1m85 2 1 1-1-1m169 1 1 1-1-1m-86 2 1 1-1-1z"/><path style="fill:#010101;stroke:none" d="m1078 1012 1 1-1-1z"/><path style="fill:#aa6a01;stroke:none" d="m1162 1013 1 1-1-1m-255 1 1 1-1-1m-1 2 1 1-1-1z"/><path style="fill:#010101;stroke:none" d="m990 1017 1 1-1-1z"/><path style="fill:#aa6a01;stroke:none" d="m1183 1018 1 1-1-1z"/><path style="fill:#010101;stroke:none" d="m818 1019 1 1-1-1z"/><path style="fill:#aa6a01;stroke:none" d="m989 1019 1 1-1-1m169 1 1 1-1-1m-341 1 1 1-1-1m86 0 1 1-1-1m83 3 1 1-1-1m85 0 1 1-1-1z"/><path style="fill:#010101;stroke:none" d="m1155 1025 1 1-1-1z"/><path style="fill:#aa6a01;stroke:none" d="m1187 1025 1 1-1-1m-373 1 1 1-1-1m340 1 1 1-1-1m-255 1 1 1-1-1m169 1 1 1-1-1z"/><path style="fill:#010101;stroke:none" d="m1190 1030 1 1-1-1z"/><path style="fill:#aa6a01;stroke:none" d="m982 1031 1 1-1-1m169 1 1 1-1-1z"/><path style="fill:#010101;stroke:none" d="m444 1035 1 1-1-1m451 0 1 1-1-1z"/><path style="fill:#aa6a01;stroke:none" d="m979 1036 1 1-1-1m85 0 1 1-1-1m130 1 1 1-1-1m-387 1 1 1-1-1m340 1 1 1-1-1m-255 1 1 1-1-1z"/><path style="fill:#010101;stroke:none" d="m1060 1043 1 1-1-1z"/><path style="fill:#aa6a01;stroke:none" d="m1144 1044 1 1-1-1m54 0 1 1-1-1m-395 1 1 1-1-1m340 1 1 1-1-1m-255 1 1 1-1-1z"/><path style="fill:#010101;stroke:none" d="m972 1048 1 1-1-1z"/><path style="fill:#aa6a01;stroke:none" d="m1057 1048 1 1-1-1m144 1 1 1-1-1z"/><path style="fill:#010101;stroke:none" d="m800 1050 1 1-1-1m-40 1 1 1-1-1z"/><path style="fill:#aa6a01;stroke:none" d="m1140 1051 1 1-1-1m62 0 1 1-1-1m-234 4 1 1-1-1m85 0 1 1-1-1z"/><path style="fill:#010101;stroke:none" d="m1137 1056 1 1-1-1z"/><path style="fill:#aa6a01;stroke:none" d="m1205 1056 1 1-1-1m-409 1 1 1-1-1m85 2 1 1-1-1m83 3 1 1-1-1z"/><path style="fill:#010101;stroke:none" d="m1049 1062 1 1-1-1z"/><path style="fill:#aa6a01;stroke:none" d="m798 1063 1 1-1-1m335 0 1 1-1-1z"/><path style="fill:#010101;stroke:none" d="m426 1066 1 1-1-1m451 0 1 1-1-1z"/><path style="fill:#aa6a01;stroke:none" d="m961 1067 1 1-1-1m85 0 1 1-1-1m-245 1 1 1-1-1m411 0 1 1-1-1z"/><path style="fill:#010101;stroke:none" d="m802 1070 1 1-1-1z"/><path style="fill:#aa6a01;stroke:none" d="m1129 1070 1 1-1-1m-86 2 1 1-1-1m-1 2 1 1-1-1z"/><path style="fill:#010101;stroke:none" d="m1126 1075 1 1-1-1z"/><path style="fill:#aa6a01;stroke:none" d="m870 1078 1 1-1-1z"/><path style="fill:#010101;stroke:none" d="m954 1079 1 1-1-1z"/><path style="fill:#aa6a01;stroke:none" d="m1039 1079 1 1-1-1m-86 2 1 1-1-1z"/><path style="fill:#010101;stroke:none" d="m742 1082 1 1-1-1z"/><path style="fill:#aa6a01;stroke:none" d="m809 1082 1 1-1-1m313 0 1 1-1-1m85 0 1 1-1-1m-340 1 1 1-1-1m83 3 1 1-1-1m85 0 1 1-1-1m-223 1 1 1-1-1m392 0 1 1-1-1m-86 2 1 1-1-1m-255 1 1 1-1-1m169 1 1 1-1-1z"/><path style="fill:#010101;stroke:none" d="m1031 1093 1 1-1-1z"/><path style="fill:#aa6a01;stroke:none" d="m816 1094 1 1-1-1m299 0 1 1-1-1m85 0 1 1-1-1m-340 1 1 1-1-1z"/><path style="fill:#010101;stroke:none" d="m408 1097 1 1-1-1m451 0 1 1-1-1z"/><path style="fill:#aa6a01;stroke:none" d="m943 1098 1 1-1-1m254 1 1 1-1-1z"/><path style="fill:#010101;stroke:none" d="m820 1101 1 1-1-1m376 0 1 1-1-1z"/><path style="fill:#aa6a01;stroke:none" d="m856 1102 1 1-1-1m83 3 1 1-1-1m85 0 1 1-1-1z"/><path style="fill:#010101;stroke:none" d="m1108 1106 1 1-1-1z"/><path style="fill:#aa6a01;stroke:none" d="m1193 1106 1 1-1-1m-86 2 1 1-1-1m-255 1 1 1-1-1z"/><path style="fill:#010101;stroke:none" d="m936 1110 1 1-1-1z"/><path style="fill:#aa6a01;stroke:none" d="m1021 1110 1 1-1-1z"/><path style="fill:#010101;stroke:none" d="m724 1113 1 1-1-1z"/><path style="fill:#aa6a01;stroke:none" d="m827 1113 1 1-1-1m277 0 1 1-1-1m85 0 1 1-1-1z"/><path style="fill:#010101;stroke:none" d="m397 1116 1 1-1-1m451 0 1 1-1-1z"/><path style="fill:#aa6a01;stroke:none" d="m932 1117 1 1-1-1m85 0 1 1-1-1m-187 1 1 1-1-1z"/><path style="fill:#010101;stroke:none" d="m1185 1120 1 1-1-1z"/><path style="fill:#aa6a01;stroke:none" d="m845 1121 1 1-1-1m83 3 1 1-1-1z"/><path style="fill:#010101;stroke:none" d="m1013 1124 1 1-1-1z"/><path style="fill:#aa6a01;stroke:none" d="m834 1125 1 1-1-1m263 0 1 1-1-1m85 0 1 1-1-1m-341 3 1 1-1-1z"/><path style="fill:#010101;stroke:none" d="m925 1129 1 1-1-1z"/><path style="fill:#aa6a01;stroke:none" d="m837 1130 1 1-1-1m256 2 1 1-1-1m85 0 1 1-1-1m-257 4 1 1-1-1m85 0 1 1-1-1z"/><path style="fill:#010101;stroke:none" d="m1090 1137 1 1-1-1z"/><path style="fill:#aa6a01;stroke:none" d="m1003 1141 1 1-1-1m-86 2 1 1-1-1m169 1 1 1-1-1m85 0 1 1-1-1z"/><path style="fill:#b78901;stroke:none" d="m1256 1145-31.01 53-71.41 123-32.58 56-19 35h60c6.17 0 18.27 2.31 23.62-1.03 3.96-2.47 6.42-9.03 8.66-12.97 5.53-9.72 11.3-19.3 16.87-29 20.32-35.4 40.46-70.99 61.45-106 6.34-10.57 12.44-21.3 18.55-32 2.19-3.84 7.04-9.39 6.78-14-.34-6.06-7.11-13.8-10.08-19-9.36-16.39-18.31-39.87-31.85-53z"/><path style="fill:#010101;stroke:none" d="m379 1147 1 1-1-1z"/><path style="fill:#aa6a01;stroke:none" d="m914 1148 1 1-1-1m85 0 1 1-1-1m169 1 1 1-1-1m91 0 1 1-1-1m-177 2 1 1-1-1z"/><path style="fill:#010101;stroke:none" d="m1167 1151 1 1-1-1z"/><path style="fill:#aa6a01;stroke:none" d="m1251 1152 1 1-1-1m-255 1 1 1-1-1z"/><path style="fill:#010101;stroke:none" d="m995 1155 1 1-1-1z"/><path style="fill:#aa6a01;stroke:none" d="m1079 1156 1 1-1-1m-1 2 1 1-1-1m169 1 1 1-1-1z"/><path style="fill:#010101;stroke:none" d="m907 1160 1 1-1-1z"/><path style="fill:#aa6a01;stroke:none" d="m992 1160 1 1-1-1m274 1 1 1-1-1m-360 1 1 1-1-1z"/><path style="fill:#010101;stroke:none" d="m695 1163 1 1-1-1z"/><path style="fill:#aa6a01;stroke:none" d="m1075 1163 1 1-1-1m85 0 1 1-1-1z"/><path style="fill:#010101;stroke:none" d="m1244 1164 1 1-1-1z"/><path style="fill:#aa6a01;stroke:none" d="m903 1167 1 1-1-1m85 0 1 1-1-1m169 1 1 1-1-1m113 0 1 1-1-1m-30 3 1 1-1-1z"/><path style="fill:#010101;stroke:none" d="m1273 1173 1 1-1-1m-289 1 1 1-1-1z"/><path style="fill:#aa6a01;stroke:none" d="m1068 1175 1 1-1-1m85 0 1 1-1-1z"/><path style="fill:#010101;stroke:none" d="m361 1178 1 1-1-1z"/><path style="fill:#aa6a01;stroke:none" d="m1236 1178 1 1-1-1m-340 1 1 1-1-1m85 0 1 1-1-1m296 1 1 1-1-1m-213 2 1 1-1-1z"/><path style="fill:#010101;stroke:none" d="m1149 1182 1 1-1-1z"/><path style="fill:#aa6a01;stroke:none" d="m1233 1183 1 1-1-1m-341 3 1 1-1-1m85 0 1 1-1-1z"/><path style="fill:#010101;stroke:none" d="m1061 1187 1 1-1-1z"/><path style="fill:#aa6a01;stroke:none" d="m1146 1187 1 1-1-1m135 0 1 1-1-1z"/><path style="fill:#010101;stroke:none" d="m889 1191 1 1-1-1m395 1 1 1-1-1z"/><path style="fill:#aa6a01;stroke:none" d="m888 1193 1 1-1-1z"/><path style="fill:#010101;stroke:none" d="m677 1194 1 1-1-1z"/><path style="fill:#aa6a01;stroke:none" d="m1057 1194 1 1-1-1m85 0 1 1-1-1z"/><path style="fill:#010101;stroke:none" d="m1226 1195 1 1-1-1z"/><path style="fill:#aa6a01;stroke:none" d="m1225 1197 1 1-1-1m-340 1 1 1-1-1m85 0 1 1-1-1m318 1 1 1-1-1m-235 2 1 1-1-1m169 1 1 1-1-1m-255 1 1 1-1-1m-85.667 2.67.334.66-.334-.66z"/><path style="fill:#010101;stroke:none" d="m966 1205 1 1-1-1z"/><path style="fill:#aa6a01;stroke:none" d="m1050 1206 1 1-1-1m85 0 1 1-1-1m157 0 1 1-1-1m-408 5 1 1-1-1m248 0 1 1-1-1m163 0 1 1-1-1z"/><path style="fill:#010101;stroke:none" d="m885 1213 1 1-1-1m246 0 1 1-1-1z"/><path style="fill:#aa6a01;stroke:none" d="m1215 1214 1 1-1-1m-256 3 1 1-1-1z"/><path style="fill:#010101;stroke:none" d="m1043 1218 1 1-1-1z"/><path style="fill:#aa6a01;stroke:none" d="m1128 1218 1 1-1-1m-86 2 1 1-1-1m169 1 1 1-1-1m85 0 1 1-1-1m-340 1 1 1-1-1z"/><path style="fill:#010101;stroke:none" d="m659 1225 1 1-1-1z"/><path style="fill:#aa6a01;stroke:none" d="m892 1225 1 1-1-1m147 0 1 1-1-1m85 0 1 1-1-1z"/><path style="fill:#010101;stroke:none" d="m1208 1226 1 1-1-1z"/><path style="fill:#aa6a01;stroke:none" d="m1293 1226 1 1-1-1z"/><path style="fill:#010101;stroke:none" d="m332 1228 1 1-1-1z"/><path style="fill:#aa6a01;stroke:none" d="m952 1229 1 1-1-1m-57 1 1 1-1-1z"/><path style="fill:#010101;stroke:none" d="m1120 1232 1 1-1-1z"/><path style="fill:#aa6a01;stroke:none" d="m1204 1233 1 1-1-1m85 0 1 1-1-1z"/><path style="fill:#010101;stroke:none" d="m948 1236 1 1-1-1z"/><path style="fill:#aa6a01;stroke:none" d="m899 1237 1 1-1-1m133 0 1 1-1-1m85 0 1 1-1-1m83 3 1 1-1-1z"/><path style="fill:#010101;stroke:none" d="m1285 1240 1 1-1-1z"/><path style="fill:#aa6a01;stroke:none" d="m945 1241 1 1-1-1m-43 1 1 1-1-1z"/><path style="fill:#010101;stroke:none" d="m903 1244 1 1-1-1z"/><path style="fill:#aa6a01;stroke:none" d="m1028 1244 1 1-1-1m85 0 1 1-1-1z"/><path style="fill:#010101;stroke:none" d="m1197 1245 1 1-1-1z"/><path style="fill:#aa6a01;stroke:none" d="m1282 1245 1 1-1-1m-341 3 1 1-1-1m-35 1 1 1-1-1z"/><path style="fill:#010101;stroke:none" d="m1025 1249 1 1-1-1z"/><path style="fill:#aa6a01;stroke:none" d="m1193 1252 1 1-1-1m85 0 1 1-1-1z"/><path style="fill:#010101;stroke:none" d="m937 1255 1 1-1-1z"/><path style="fill:#aa6a01;stroke:none" d="m910 1256 1 1-1-1m111 0 1 1-1-1m85 0 1 1-1-1z"/><path style="fill:#010101;stroke:none" d="m314 1259 1 1-1-1z"/><path style="fill:#aa6a01;stroke:none" d="m1189 1259 1 1-1-1m-255 1 1 1-1-1m169 1 1 1-1-1z"/><path style="fill:#010101;stroke:none" d="m914 1263 1 1-1-1z"/><path style="fill:#aa6a01;stroke:none" d="m1017 1263 1 1-1-1z"/><path style="fill:#010101;stroke:none" d="m1102 1263 1 1-1-1z"/><path style="fill:#aa6a01;stroke:none" d="m1186 1264 1 1-1-1m85 0 1 1-1-1m-340 1 1 1-1-1m-1 2 1 1-1-1m-13 1 1 1-1-1m97 0 1 1-1-1m254 1 1 1-1-1m-255 1 1 1-1-1z"/><path style="fill:#010101;stroke:none" d="m1267 1271 1 1-1-1m-637 4 1 1-1-1z"/><path style="fill:#aa6a01;stroke:none" d="m921 1275 1 1-1-1m89 0 1 1-1-1m85 0 1 1-1-1z"/><path style="fill:#010101;stroke:none" d="m1179 1276 1 1-1-1z"/><path style="fill:#aa6a01;stroke:none" d="m1264 1276 1 1-1-1m-86 2 1 1-1-1m-86 2 1 1-1-1m83 3 1 1-1-1m85 0 1 1-1-1m-257 4 1 1-1-1m85 0 1 1-1-1z"/><path style="fill:#010101;stroke:none" d="m296 1290 1 1-1-1m960 0 1 1-1-1z"/><path style="fill:#aa6a01;stroke:none" d="m1340 1291 1 1-1-1z"/><path style="fill:#b78901;stroke:none" d="m1341 1291-41.01 70-28.99 51 140 2c-1.34-12.33-13.13-26.42-19.4-37-11.58-19.55-22.77-39.35-34.18-59-5.06-8.73-9.52-19.63-16.42-27z"/><path style="fill:#aa6a01;stroke:none" d="m1342 1292 1 1-1-1m-343 2 1 1-1-1z"/><path style="fill:#010101;stroke:none" d="m1084 1294 1 1-1-1z"/><path style="fill:#aa6a01;stroke:none" d="m1168 1295 1 1-1-1m85 0 1 1-1-1m83 3 1 1-1-1z"/><path style="fill:#010101;stroke:none" d="m996 1299 1 1-1-1z"/><path style="fill:#aa6a01;stroke:none" d="m1081 1299 1 1-1-1m265 0 1 1-1-1m-182 3 1 1-1-1m85 0 1 1-1-1z"/><path style="fill:#010101;stroke:none" d="m1333 1303 1 1-1-1m16 1 1 1-1-1m-737 2 1 1-1-1z"/><path style="fill:#aa6a01;stroke:none" d="m992 1306 1 1-1-1m85 0 1 1-1-1m273 0 1 1-1-1z"/><path style="fill:#010101;stroke:none" d="m1161 1307 1 1-1-1m-876 2 1 1-1-1z"/><path style="fill:#aa6a01;stroke:none" d="m1329 1310 1 1-1-1m24 1 1 1-1-1m-365 2 1 1-1-1m169 1 1 1-1-1m85 0 1 1-1-1m83 3 1 1-1-1m-340 1 1 1-1-1m85 0 1 1-1-1m287 0 1 1-1-1m-118 1 1 1-1-1m-86 2 1 1-1-1z"/><path style="fill:#010101;stroke:none" d="m1238 1321 1 1-1-1z"/><path style="fill:#aa6a01;stroke:none" d="m1322 1322 1 1-1-1m-255 1 1 1-1-1z"/><path style="fill:#010101;stroke:none" d="m1360 1323 1 1-1-1z"/><path style="fill:#aa6a01;stroke:none" d="m1066 1325 1 1-1-1z"/><path style="fill:#010101;stroke:none" d="m272 1326 1 1-1-1m878 0 1 1-1-1z"/><path style="fill:#aa6a01;stroke:none" d="m1149 1328 1 1-1-1z"/><path style="fill:#010101;stroke:none" d="m978 1330 1 1-1-1z"/><path style="fill:#aa6a01;stroke:none" d="m1063 1330 1 1-1-1m301 0 1 1-1-1m-387 2 1 1-1-1m169 1 1 1-1-1m85 0 1 1-1-1z"/><path style="fill:#010101;stroke:none" d="m1315 1334 1 1-1-1z"/><path style="fill:#aa6a01;stroke:none" d="m1314 1336 1 1-1-1m-340 1 1 1-1-1m85 0 1 1-1-1m309 0 1 1-1-1m-140 1 1 1-1-1z"/><path style="fill:#010101;stroke:none" d="m248 1341 1 1-1-1z"/><path style="fill:#aa6a01;stroke:none" d="m1311 1341 1 1-1-1z"/><path style="fill:#010101;stroke:none" d="m1371 1342 1 1-1-1m-316 2 1 1-1-1z"/><path style="fill:#aa6a01;stroke:none" d="m1139 1345 1 1-1-1m85 0 1 1-1-1z"/><path style="fill:#010101;stroke:none" d="m233 1347 1 1-1-1z"/><path style="fill:#aa6a01;stroke:none" d="m967 1349 1 1-1-1m85 0 1 1-1-1m323 0 1 1-1-1z"/><path style="fill:#010101;stroke:none" d="m1220 1352 1 1-1-1z"/><path style="fill:#aa6a01;stroke:none" d="m1304 1353 1 1-1-1z"/><path style="fill:#010101;stroke:none" d="m968 1356 1 1-1-1z"/><path style="fill:#aa6a01;stroke:none" d="m1048 1356 1 1-1-1m331 0 1 1-1-1z"/><path style="fill:#010101;stroke:none" d="m1132 1357 1 1-1-1z"/><path style="fill:#aa6a01;stroke:none" d="m1217 1357 1 1-1-1z"/><path style="fill:#010101;stroke:none" d="m654 1358 1 1-1-1z"/><path style="fill:#aa6a01;stroke:none" d="m1300 1360 1 1-1-1m-329 1 1 1-1-1z"/><path style="fill:#010101;stroke:none" d="m1382 1361 1 1-1-1m-1356 2 1 1-1-1z"/><path style="fill:#aa6a01;stroke:none" d="m1128 1364 1 1-1-1m85 0 1 1-1-1z"/><path style="fill:#010101;stroke:none" d="m1297 1365 1 1-1-1z"/><path style="fill:#aa6a01;stroke:none" d="m975 1368 1 1-1-1m66 0 1 1-1-1m345 0 1 1-1-1m-262 3 1 1-1-1m169 1 1 1-1-1m-255 1 1 1-1-1z"/><path style="fill:#010101;stroke:none" d="m979 1375 1 1-1-1m58 0 1 1-1-1z"/><path style="fill:#aa6a01;stroke:none" d="m1390 1375 1 1-1-1m-269 1 1 1-1-1m85 0 1 1-1-1m83 3 1 1-1-1m-307 1 1 1-1-1z"/><path style="fill:#010101;stroke:none" d="m1393 1380 1 1-1-1z"/><path style="fill:#aa6a01;stroke:none" d="m1203 1381 1 1-1-1z"/><path style="fill:#010101;stroke:none" d="m1202 1383 1 1-1-1m84 1 1 1-1-1z"/><path style="fill:#aa6a01;stroke:none" d="m985 1385 1 1-1-1m300 1 1 1-1-1m-299 1 1 1-1-1m44 0 1 1-1-1m367 0 1 1-1-1z"/><path style="fill:#010101;stroke:none" d="m1114 1388 1 1-1-1z"/><path style="fill:#aa6a01;stroke:none" d="m1199 1388 1 1-1-1z"/><path style="fill:#010101;stroke:none" d="m794 1390 1 1-1-1z"/><path style="fill:#aa6a01;stroke:none" d="m1113 1390 1 1-1-1m169 1 1 1-1-1m-293 1 1 1-1-1m38 0 1 1-1-1m83 3 1 1-1-1m85 0 1 1-1-1m83 3 1 1-1-1m-285 1 1 1-1-1m30 0 1 1-1-1z"/><path style="fill:#010101;stroke:none" d="m1404 1399 1 1-1-1M5 1401l1 1-1-1z"/><path style="fill:#aa6a01;stroke:none" d="m1405 1401 1 1-1-1z"/><path style="fill:#010101;stroke:none" d="m1191 1402 1 1-1-1z"/><path style="fill:#aa6a01;stroke:none" d="m1275 1403 1 1-1-1m-279 1 1 1-1-1z"/><path style="fill:#010101;stroke:none" d="m997 1406 1 1-1-1m22 0 1 1-1-1z"/><path style="fill:#aa6a01;stroke:none" d="m1408 1406 1 1-1-1m-305 1 1 1-1-1m85 0 1 1-1-1m-86 2 1 1-1-1z"/><path style="fill:#010101;stroke:none" d="m0 1410 1 1-1-1z"/><path style="fill:#aa6a01;stroke:none" d="m1016 1411 1 1-1-1z"/><path style="fill:#010101;stroke:none" d="m1101 1411 1 1-1-1z"/><path style="fill:#aa6a01;stroke:none" d="m1306 1412 1 1-1-1m61 1 1 1-1-1z"/></svg>